<svg width="128" height="128" viewBox="0 0 128 128" fill="none" xmlns="http://www.w3.org/2000/svg">
<g clip-path="url(#clip0_1_22)">
<path d="M16.62 124.27V14.04C47.14 16.24 77.8 16.31 108.33 14.25C110.01 14.14 111.38 15.29 111.38 16.83V121.48C111.38 123.02 110.02 124.37 108.33 124.48C77.7922 126.54 47.148 126.47 16.62 124.27V124.27Z" fill="#BDBDBD"/>
<path d="M16.62 124.25V14.02C44.36 7.90999 72.21 3.89999 99.95 2.02999C101.48 1.92999 102.72 3.09999 102.72 4.63999V109.29C102.72 110.83 101.48 112.16 99.95 112.26C72.21 114.13 44.36 118.14 16.62 124.25V124.25Z" fill="#E0E0E0"/>
<path d="M28.75 91C37.529 89.2574 46.3481 87.7236 55.2 86.4M28.75 49.34C49.35 45.26 70 42.34 90.59 40.6L28.75 49.34ZM28.75 63.23C37.529 61.4874 46.3481 59.9536 55.2 58.63L28.75 63.23ZM28.75 77.11C37.529 75.3674 46.3481 73.8336 55.2 72.51L28.75 77.11ZM28.75 105.57C49.35 101.49 70 98.57 90.59 96.83L28.75 105.57Z" stroke="#616161" stroke-width="5" stroke-miterlimit="10" stroke-linecap="round" stroke-linejoin="round"/>
<path d="M64.86 87.55C73.0624 86.4712 81.2878 85.5743 89.53 84.86C91.02 84.73 92.22 83.42 92.22 81.92V54.54C92.22 53.04 91.01 51.93 89.53 52.06C81.31 52.77 73.09 53.67 64.86 54.75C63.37 54.95 62.16 56.33 62.16 57.82V85.2C62.17 86.7 63.37 87.75 64.86 87.55ZM30.46 35.41C32.49 35.01 34.51 34.63 36.54 34.26C38.03 33.99 39.23 32.56 39.23 31.06V24.04C39.23 22.54 38.02 21.55 36.54 21.82C34.51 22.19 32.49 22.58 30.46 22.97C28.97 23.26 27.77 24.72 27.77 26.21V33.23C27.76 34.73 28.97 35.7 30.46 35.41V35.41ZM46.42 32.53C48.45 32.19 50.47 31.87 52.5 31.56C53.99 31.33 55.2 29.94 55.2 28.44V21.42C55.2 19.92 53.99 18.89 52.5 19.12C50.47 19.43 48.44 19.76 46.42 20.09C44.93 20.34 43.73 21.76 43.73 23.25V30.27C43.73 31.77 44.93 32.78 46.42 32.53ZM62.39 30.12C64.42 29.84 66.45 29.58 68.47 29.32C69.96 29.13 71.17 27.78 71.17 26.28V19.26C71.17 17.76 69.96 16.69 68.47 16.88C66.44 17.13 64.41 17.4 62.39 17.68C60.9 17.88 59.69 19.27 59.69 20.76V27.78C59.7 29.28 60.91 30.32 62.39 30.12V30.12Z" fill="#616161"/>
</g>
<defs>
<clipPath id="clip0_1_22">
<rect width="128" height="128" fill="white"/>
</clipPath>
</defs>
</svg>
