<svg width="128" height="128" viewBox="0 0 128 128" fill="none" xmlns="http://www.w3.org/2000/svg">
<path d="M42.6667 14.7804C42.6667 14.7804 56.8889 10.9582 60.4444 10.9582C64 10.9582 78.2222 14.7804 78.2222 14.7804C78.2222 14.7804 92.4444 30.0622 96 30.0622C96 30.0622 103.111 30.0622 110.222 37.7031C117.333 45.344 117.333 60.6258 117.333 60.6258C117.333 60.6258 124.444 75.9076 124.444 83.5484C124.444 91.1893 120.889 98.8302 117.333 102.652C113.778 106.475 99.5555 110.293 99.5555 110.293C99.5555 110.293 96 117.934 88.8889 121.756C67.5555 125.579 53.3333 121.756 53.3333 121.756L46.2222 114.116C46.2222 114.116 21.3333 110.293 17.7778 110.293C14.2222 110.293 3.55554 95.0116 3.55554 91.1893C3.55554 87.3671 3.55554 75.9076 7.1111 64.4444C14.2222 52.9813 17.7778 49.1627 17.7778 49.1627C17.7778 49.1627 14.2222 41.5253 17.7778 33.8844C24.8889 26.2436 39.1111 22.4213 39.1111 22.4213L42.6667 14.7804V14.7804Z" fill="#66757F"/>
<path d="M44.1209 15.9644C44.1209 15.9644 57.0382 12.3342 60.384 12.3342C63.7298 12.3342 78.1262 16.4196 78.1262 16.4196C78.1262 16.4196 90.8338 30.72 94.1796 30.72C94.1796 30.72 101.426 30.56 108.121 37.7565C114.816 44.9529 114.194 57.728 114.194 57.728C114.194 57.728 120.889 72.1138 120.889 79.3067C120.889 86.4996 117.543 93.696 114.197 97.2942C110.852 100.892 97.4649 104.487 97.4649 104.487C97.4649 104.487 94.1191 111.68 87.424 115.278C67.3458 118.876 53.9591 115.278 53.9591 115.278L47.2676 108.085C47.2676 108.085 23.8436 104.487 20.4978 104.487C17.152 104.487 7.11111 90.0978 7.11111 86.4996C7.11111 82.9013 7.11111 72.1102 10.4569 61.3191C17.152 50.528 20.4978 46.9333 20.4978 46.9333C20.4978 46.9333 16.2738 41.0916 19.6196 33.8951C26.3111 26.7022 40.5298 23.0009 40.5298 23.0009L44.1209 15.9644V15.9644Z" fill="#99AAB5"/>
<path d="M45.408 18.8871C45.408 18.8871 57.4898 15.7156 60.6187 15.7156C63.7476 15.7156 77.2124 19.2818 77.2124 19.2818C77.2124 19.2818 89.0951 31.7653 92.224 31.7653C92.224 31.7653 99.0009 31.6267 105.262 37.9058C111.52 44.1849 110.944 55.3387 110.944 55.3387C110.944 55.3387 111.922 70.432 114.457 70.8871C120.892 72.0391 115.051 84.0889 111.922 87.2285C108.793 90.368 86.9973 91.7689 86.9973 91.7689C86.9973 91.7689 87.7653 101.564 81.504 104.708C62.7271 107.847 54.6062 105.582 54.6062 105.582L48.3484 99.3031C48.3484 99.3031 33.0951 84.736 29.9662 84.736C26.8373 84.736 10.7911 83.6018 10.7911 80.4622C10.7911 77.3227 10.7911 67.9005 13.92 58.4818C20.1778 49.0631 23.3102 45.92 23.3102 45.92C23.3102 45.92 19.36 40.8178 22.4889 34.5387C28.7467 28.2596 42.0444 25.0276 42.0444 25.0276L45.408 18.8871Z" fill="#CCD6DD"/>
<path d="M22.3645 44.7893L36.5191 51.3707L29.1236 56.5902L13.9271 58.4818L22.3645 44.7893Z" fill="#99AAB5"/>
<path d="M5.67822 78.1547C5.67822 78.1547 9.69244 91.5449 10.7484 93.1342C11.8044 94.7235 25.3227 93.5893 27.0116 93.5893C28.7004 93.5893 36.9387 97.9022 36.9387 97.9022C36.9387 97.9022 25.9556 100.853 22.1547 100.398C18.3538 99.9431 8.47289 98.1689 7.58044 95.6302C6.688 93.0915 5.67822 78.1547 5.67822 78.1547V78.1547Z" fill="#66757F"/>
<path d="M25.9555 34.1227C27.6978 33.5715 39.6835 28.448 42.2187 28.6755C44.7538 28.9031 55.5271 35.0293 52.992 37.0738C50.4569 39.1182 36.5155 37.5289 32.5049 37.5289C28.4942 37.5289 22.3644 35.2569 25.9555 34.1227ZM17.5075 61.5858C18.5849 59.5555 32.928 58.8622 32.928 58.8622C32.928 58.8622 51.5164 66.3538 51.5164 67.488C51.5164 68.6222 34.6204 76.3413 32.928 76.5653C31.2355 76.7893 16.6613 63.1751 17.5075 61.5858V61.5858ZM59.1182 75.4311C58.784 73.6356 66.3004 62.72 67.7795 61.8133C69.2587 60.9067 89.1129 55.6836 92.4907 55.6836C95.8684 55.6836 106.642 63.6267 106.855 65.216C107.065 66.8053 97.3511 77.6996 94.816 78.6062C92.2809 79.5164 59.7511 78.8338 59.1182 75.4311ZM78.1298 45.4684C77.3298 47.3778 97.1413 50.0089 99.2533 49.0987C101.365 48.192 105.166 42.0622 104.533 40.4729C103.9 38.8836 97.7742 34.3431 94.6062 34.7982C91.4347 35.2569 80.0284 40.9315 78.1298 45.4684V45.4684ZM62.4995 17.5538C64.2702 17.9342 76.0178 20.7324 77.4969 23.0009C78.976 25.2693 70.528 32.3058 68.2027 32.5333C65.8809 32.7609 50.0373 23.0009 48.3484 21.8667C46.6595 20.7324 59.328 16.8711 62.4995 17.5538Z" fill="#E1E8ED"/>
<path d="M46.4462 111.516C44.9671 109.248 47.2924 101.756 48.5582 102.663C49.824 103.57 53.6284 106.293 53.8382 108.565C54.048 110.834 57.8524 115.147 60.5973 116.508C63.3422 117.87 78.3395 117.87 80.8747 116.964C83.4098 116.057 89.3227 111.061 90.8018 108.11C92.2809 105.159 93.9875 104.942 97.4649 104.484C100.942 104.025 104.299 107.484 99.5555 110.293C94.816 113.102 89.7458 118.098 83.8329 119.232C77.92 120.366 58.6987 121.276 55.3173 119.915C51.936 118.553 46.4462 111.516 46.4462 111.516V111.516Z" fill="#66757F"/>
<path d="M71.8222 95.1253C70.0409 94.1689 69.376 86.2542 70.2933 85.5964C71.2106 84.9387 79.7724 86.2542 81.76 86.5813C83.7475 86.9085 95.8258 85.9236 97.0489 87.2391C98.272 88.5547 101.22 93.376 102.247 96.2738C103.275 99.1751 96.5902 98.7378 93.9911 98.08C91.392 97.4222 74.2684 96.4409 71.8222 95.1253V95.1253ZM44.7538 42.7449C47.0755 42.7449 56.7929 42.5173 58.9049 42.7449C61.0169 42.9724 67.776 49.3262 64.608 50.0089C61.44 50.6916 52.992 52.96 51.7226 53.1876C50.4533 53.4151 45.8098 49.1022 44.3306 47.968C42.8551 46.8302 42.2222 42.7449 44.7538 42.7449V42.7449ZM71.3706 36.3911C72.544 34.5031 77.0738 33.8951 77.2835 35.936C77.4933 37.9804 76.2275 42.5173 73.6924 42.2898C71.1573 42.0658 69.6782 39.1147 71.3706 36.3911V36.3911ZM59.1182 84.2809C61.2266 84.0285 65.2444 83.5982 65.2444 85.4151C65.2444 87.232 62.7093 87.9111 59.7511 87.6836C56.7964 87.4596 57.216 84.5085 59.1182 84.2809Z" fill="#99AAB5"/>
<path d="M50.88 59.0898C52.7253 57.504 59.1182 57.2729 60.5973 57.9556C62.0764 58.6382 58.9084 63.4027 57.0062 63.6302C55.104 63.8542 48.768 60.9031 50.88 59.0898V59.0898Z" fill="#E1E8ED"/>
<path d="M93.1236 93.8133C95.232 93.248 100.306 92.6791 100.092 94.2684C99.8827 95.8578 97.7707 98.8089 96.0782 98.5813C94.3858 98.3538 91.4347 94.2684 93.1236 93.8133ZM79.3956 109.703C81.728 109.316 85.3085 107.435 85.0987 109.703C84.8889 111.972 82.3538 114.923 79.6053 114.471C76.8605 114.016 76.6507 110.155 79.3956 109.703V109.703Z" fill="#66757F"/>
</svg>
